<svg width="84" height="91" viewBox="0 0 84 91" fill="none" xmlns="http://www.w3.org/2000/svg">
    <path d="M31.5 45.5H52.5M31.5 59.5H42M14 14V70C14 71.8565 14.7375 73.637 16.0503 74.9497C17.363 76.2625 19.1435 77 21 77H63C64.8565 77 66.637 76.2625 67.9497 74.9497C69.2625 73.637 70 71.8565 70 70V29.197C69.9999 28.2645 69.8134 27.3413 69.4516 26.4819C69.0898 25.6224 68.5599 24.8438 67.893 24.192L52.353 8.995C51.0453 7.7163 49.289 7.00023 47.46 7H21C19.1435 7 17.363 7.7375 16.0503 9.05025C14.7375 10.363 14 12.1435 14 14Z" stroke="black" stroke-width="2" stroke-linecap="round" stroke-linejoin="round"/>
    <path d="M49 7V21C49 22.8565 49.7375 24.637 51.0503 25.9497C52.363 27.2625 54.1435 28 56 28H70" stroke="black" stroke-width="2" stroke-linejoin="round"/>
    <path d="M47.8333 83.7916V86.7083C47.8333 87.4818 48.1406 88.2237 48.6876 88.7706C49.2346 89.3176 49.9764 89.6249 50.75 89.6249H68.25C69.0235 89.6249 69.7654 89.3176 70.3124 88.7706C70.8594 88.2237 71.1667 87.4818 71.1667 86.7083V83.7916M52.2083 72.1249L59.5 64.8333M59.5 64.8333L66.7917 72.1249M59.5 64.8333V82.3333" stroke="black" stroke-width="2" stroke-linecap="round" stroke-linejoin="round"/>
</svg>
