<svg width="118" height="68" viewBox="0 0 118 68" fill="none" xmlns="http://www.w3.org/2000/svg">
    <g clip-path="url(#clip0_0_1)">
        <path d="M91.9963 68L113 55.6381L104.95 50.8926L96.719 55.7388C96.6489 55.7781 96.57 55.7984 96.49 55.7977C96.41 55.7971 96.3314 55.7755 96.2619 55.735C96.1927 55.6936 96.1351 55.6347 96.0946 55.564C96.0542 55.4933 96.0324 55.4132 96.0312 55.3313V43.822C96.0312 43.4829 96.2034 43.1761 96.4915 43.0072L106.272 37.2505C106.341 37.21 106.42 37.1891 106.5 37.1897C106.581 37.1904 106.659 37.2126 106.728 37.2542C106.871 37.3349 106.961 37.4877 106.962 37.6542V47.3424L115.018 52.0851V27.3618L91.9959 40.9062L91.9963 68Z" fill="black"/>
        <path d="M87.2863 55.7441L79.0516 50.8921L70.9948 55.6372L91.9963 67.9999V40.9061L68.9819 27.3613V52.0833L77.0358 47.3423V37.6549C77.0394 37.4889 77.1272 37.3361 77.2682 37.2549C77.3376 37.2133 77.4166 37.191 77.4972 37.1904C77.5778 37.1897 77.6571 37.2107 77.7272 37.2512L87.5122 43.0071C87.6522 43.0902 87.7683 43.2092 87.8491 43.3523C87.9299 43.4955 87.9724 43.6577 87.9724 43.8228V55.3337C87.9713 55.4157 87.9497 55.496 87.9095 55.5671C87.8693 55.6381 87.812 55.6975 87.7429 55.7395C87.6738 55.7809 87.5953 55.8031 87.5152 55.804C87.4351 55.8048 87.3562 55.7843 87.2863 55.7445" fill="#4D4D4D"/>
        <path d="M94.0146 15V24.482L102.246 29.3253C102.387 29.4094 102.471 29.5638 102.471 29.7328C102.471 29.8996 102.385 30.0524 102.246 30.1365L92.4619 35.8969C92.3213 35.9782 92.1624 36.0209 92.0008 36.0209C91.8392 36.0209 91.6803 35.9782 91.5397 35.8969L81.7588 30.1365C81.6893 30.0956 81.6317 30.0367 81.5918 29.9658C81.5518 29.8949 81.531 29.8145 81.5313 29.7328C81.5307 29.6505 81.5514 29.5694 81.5914 29.4979C81.6313 29.4264 81.6891 29.3668 81.7588 29.3253L89.9882 24.482V15L68.9814 27.3618L91.9963 40.9062L115.016 27.3623L94.0146 15Z" fill="#808080"/>
    </g>
    <path d="M59.7 11.4833C57.6187 9.74992 54.9187 8.66659 51.9375 8.66659C46.7062 8.66659 42.285 11.9491 40.7325 16.4883L43.3875 17.3333C43.9797 15.5997 45.1251 14.0905 46.6603 13.0206C48.1956 11.9507 50.0424 11.3748 51.9375 11.3749C54.1312 11.3749 56.1337 12.1549 57.6975 13.4116L53.625 17.3333H63.75V7.58325L59.7 11.4833Z" fill="black"/>
    <path d="M30.9166 37.2917C29.1596 37.2917 27.4745 36.5937 26.2321 35.3512C24.9896 34.1088 24.2916 32.4237 24.2916 30.6667V21.8333H15.4583C14.2869 21.8333 13.1635 22.2987 12.3353 23.1269C11.507 23.9552 11.0416 25.0786 11.0416 26.25V54.9583C11.0416 56.1297 11.507 57.2531 12.3353 58.0814C13.1635 58.9097 14.2869 59.375 15.4583 59.375H35.3333C36.5047 59.375 37.6281 58.9097 38.4564 58.0814C39.2847 57.2531 39.75 56.1297 39.75 54.9583V37.2917H30.9166ZM26.5 30.6667C26.5 31.838 26.9653 32.9614 27.7936 33.7897C28.6219 34.618 29.7453 35.0833 30.9166 35.0833H38.8446L26.5 22.7387V30.6667ZM15.4583 19.625H26.5L41.9583 35.0833V54.9583C41.9583 56.7154 41.2603 58.4005 40.0179 59.6429C38.7755 60.8853 37.0904 61.5833 35.3333 61.5833H15.4583C13.7013 61.5833 12.0162 60.8853 10.7737 59.6429C9.5313 58.4005 8.83331 56.7154 8.83331 54.9583V26.25C8.83331 24.4929 9.5313 22.8078 10.7737 21.5654C12.0162 20.323 13.7013 19.625 15.4583 19.625Z" fill="black"/>
    <defs>
        <clipPath id="clip0_0_1">
            <rect width="52" height="53" fill="white" transform="translate(66 15)"/>
        </clipPath>
    </defs>
</svg>
