<svg width="84" height="84" viewBox="0 0 84 84" fill="none" xmlns="http://www.w3.org/2000/svg">
    <path d="M42 60.172L53.578 48.5975L51.1 46.1195L43.75 53.4695V37.0195H40.25V53.4695L32.9 46.1195L30.422 48.5975L42 60.172ZM17.5 27.328V64.3475C17.5 64.9752 17.7018 65.4908 18.1055 65.8945C18.5092 66.2982 19.026 66.5 19.656 66.5H64.3475C64.9752 66.5 65.4908 66.2982 65.8945 65.8945C66.2982 65.4908 66.5 64.9752 66.5 64.3475V27.328H17.5ZM20.195 70C18.627 70 17.2025 69.3595 15.9215 68.0785C14.6405 66.7975 14 65.3742 14 63.8085V26.201C14 25.5197 14.1085 24.878 14.3255 24.276C14.5425 23.674 14.8692 23.1198 15.3055 22.6135L20.7585 16.0685C21.2648 15.3848 21.8983 14.8692 22.659 14.5215C23.4197 14.1738 24.2352 14 25.1055 14H58.7615C59.6295 14 60.4555 14.1738 61.2395 14.5215C62.0235 14.8692 62.6687 15.3837 63.175 16.065L68.6945 22.75C69.1308 23.2563 69.4575 23.8222 69.6745 24.4475C69.8915 25.0705 70 25.7238 70 26.4075V63.805C70 65.3707 69.3595 66.794 68.0785 68.075C66.7975 69.356 65.3742 69.9965 63.8085 69.9965L20.195 70ZM18.83 23.828H65.1L60.445 18.235C60.2187 18.011 59.9597 17.8325 59.668 17.6995C59.3763 17.5665 59.073 17.5 58.758 17.5H25.172C24.8593 17.5 24.556 17.5677 24.262 17.703C23.968 17.8383 23.7113 18.018 23.492 18.242L18.83 23.828Z" fill="black"/>
</svg>
