<?xml version="1.0" encoding="UTF-8"?>
<!DOCTYPE svg PUBLIC "-//W3C//DTD SVG 1.1//EN" "http://www.w3.org/Graphics/SVG/1.1/DTD/svg11.dtd">
<!-- Creator: CorelDRAW 2020 (64 Bit) -->
<svg xmlns="http://www.w3.org/2000/svg" xml:space="preserve" width="138.413mm" height="81.1388mm" version="1.1" style="shape-rendering:geometricPrecision; text-rendering:geometricPrecision; image-rendering:optimizeQuality; fill-rule:evenodd; clip-rule:evenodd"
viewBox="0 0 13841.32 8113.88"
 xmlns:xlink="http://www.w3.org/1999/xlink"
 xmlns:xodm="http://www.corel.com/coreldraw/odm/2003">
 <defs>
  <style type="text/css">
   <![CDATA[
    .fil7 {fill:#25B49E;fill-rule:nonzero}
    .fil6 {fill:#343939;fill-rule:nonzero}
    .fil0 {fill:url(#id0);fill-rule:nonzero}
    .fil4 {fill:url(#id1);fill-rule:nonzero}
    .fil1 {fill:url(#id2);fill-rule:nonzero}
    .fil5 {fill:url(#id3);fill-rule:nonzero}
    .fil2 {fill:url(#id4);fill-rule:nonzero}
    .fil3 {fill:url(#id5);fill-rule:nonzero}
   ]]>
  </style>
  <linearGradient id="id0" gradientUnits="userSpaceOnUse" x1="2962.69" y1="4169.68" x2="3425.25" y2="4779.87">
   <stop offset="0" style="stop-opacity:1; stop-color:#25B49E"/>
   <stop offset="1" style="stop-opacity:1; stop-color:#25A2B5"/>
  </linearGradient>
  <linearGradient id="id1" gradientUnits="userSpaceOnUse" xlink:href="#id0" x1="4351.84" y1="5127.21" x2="4629.38" y2="5493.33">
  </linearGradient>
  <linearGradient id="id2" gradientUnits="userSpaceOnUse" xlink:href="#id0" x1="3487.77" y1="2620.57" x2="3765.31" y2="2986.68">
  </linearGradient>
  <linearGradient id="id3" gradientUnits="userSpaceOnUse" xlink:href="#id0" x1="4144.52" y1="4310.16" x2="4837.15" y2="4664.07">
  </linearGradient>
  <linearGradient id="id4" gradientUnits="userSpaceOnUse" xlink:href="#id0" x1="3279.94" y1="3449.91" x2="3972.58" y2="3803.82">
  </linearGradient>
  <linearGradient id="id5" gradientUnits="userSpaceOnUse" xlink:href="#id0" x1="4691.84" y1="3334.1" x2="5154.4" y2="3944.29">
  </linearGradient>
 </defs>
 <g id="__x0023_Layer_x0020_1">
  <metadata id="CorelCorpID_0Corel-Layer"/>
  <g id="_2122678732176">
   <g>
    <path class="fil0" d="M3193.97 4748.09c-150.69,0 -273.31,-122.62 -273.31,-273.31 0,-150.69 122.62,-273.31 273.31,-273.31 150.7,0 273.31,122.62 273.31,273.31 0,150.69 -122.61,273.31 -273.31,273.31z"/>
    <path class="fil1" d="M3626.54 3076.93c-150.7,0 -273.31,-122.61 -273.31,-273.31 0,-150.69 122.61,-273.3 273.31,-273.3 150.69,0 273.31,122.61 273.31,273.3 0,150.7 -122.62,273.31 -273.31,273.31z"/>
    <path class="fil2" d="M4058.55 3900.18c-56.57,0 -111.39,-17.77 -158.47,-51.55l-20.95 -15.01 -1.88 0c-73.09,-52.56 -159.16,-80.18 -250.71,-80.18 -94.5,0 -183.14,29.46 -257.71,85.34l-16.34 9.85c-47.08,33.78 -101.9,51.55 -158.52,51.55 -150.69,0 -273.31,-122.62 -273.31,-273.31 0,-150.7 122.62,-273.31 273.31,-273.31 59.24,0 116.36,19.79 165.2,57.35l21.58 16.57 2.67 0c71.11,48.79 156.36,75.39 243.12,75.39 86.76,0 172,-26.6 243.11,-75.39l0.97 0 22.78 -16.66c48.79,-37.47 105.91,-57.26 165.15,-57.26 150.69,0 273.31,122.61 273.31,273.31 0,150.69 -122.62,273.31 -273.31,273.31z"/>
    <path class="fil3" d="M4923.12 3912.51c-150.69,0 -273.31,-122.61 -273.31,-273.31 0,-150.69 122.62,-273.31 273.31,-273.31 150.7,0 273.31,122.62 273.31,273.31 0,150.7 -122.61,273.31 -273.31,273.31z"/>
    <path class="fil4" d="M4490.61 5583.58c-150.7,0 -273.31,-122.62 -273.31,-273.31 0,-150.7 122.61,-273.31 273.31,-273.31 150.69,0 273.31,122.61 273.31,273.31 0,150.69 -122.62,273.31 -273.31,273.31z"/>
    <path class="fil5" d="M4923.12 4760.43c-59.09,0 -116.26,-19.8 -165.19,-57.35l-21.58 -16.57 -2.63 0c-71.11,-48.79 -156.35,-75.4 -243.11,-75.4 -86.81,0 -172.05,26.61 -243.17,75.4l-0.87 0 -22.78 16.57c-48.93,37.55 -106.1,57.35 -165.24,57.35 -150.69,0 -273.31,-122.62 -273.31,-273.31 0,-150.7 122.62,-273.31 273.31,-273.31 56.61,0 111.43,17.76 158.52,51.55l20.94 15 1.89 0c73,52.47 159.02,80.09 250.71,80.09 94.58,0 183.18,-29.37 257.61,-85.24l16.43 -9.85c47.09,-33.79 101.91,-51.55 158.47,-51.55 150.7,0 273.31,122.61 273.31,273.31 0,150.69 -122.61,273.31 -273.31,273.31z"/>
   </g>
   <g>
    <path class="fil6" d="M6565.36 4299.19c-62.67,0 -62.67,-24.42 -62.67,-34.85l0 -400.52 -475.37 0 0 400.52c0,10.43 0,34.85 -62.66,34.85 -62.63,0 -62.63,-24.42 -62.63,-34.85l0 -756.14c0,-108.41 34.7,-196.51 103.11,-261.81 69.14,-67.56 154.35,-100.36 260.67,-100.36 106.8,0 191.46,32.76 258.81,100.11 68.66,65.55 103.36,153.65 103.36,262.06l0 756.14c0,10.43 0,34.85 -62.62,34.85zm-299.55 -1049.17l0 0c-142.67,0 -238.49,105.04 -238.49,261.44l0 248.33 475.37 0 0 -248.33c0,-156.4 -95.19,-261.44 -236.88,-261.44z"/>
    <path class="fil6" d="M7282.11 4305.7c-105.81,0 -191.09,-32.28 -260.67,-98.71 -68.37,-66.84 -103.1,-155.48 -103.1,-263.42l0 -756.18c0,-10.39 0,-34.81 62.62,-34.81 62.66,0 62.66,24.42 62.66,34.81l0 752.88c0,156.4 95.82,261.45 238.49,261.45 141.69,0 236.89,-105.05 236.89,-261.45l0 -752.88c0,-10.39 0,-34.81 62.66,-34.81 62.62,0 62.62,24.42 62.62,34.81l0 756.18c0,107.97 -34.73,196.62 -103.21,263.56 -66.98,65.41 -154.09,98.57 -258.96,98.57z"/>
    <path class="fil6" d="M8219.87 4299.19c-62.62,0 -62.62,-24.42 -62.62,-34.85l0 -994.67 -279.45 0c-9.7,0 -29.91,0 -29.91,-51.17 0,-52.85 20.21,-52.85 29.91,-52.85l684.14 0c9.7,0 29.91,0 29.91,52.85 0,51.17 -20.21,51.17 -29.91,51.17l-279.41 0 0 994.67c0,10.43 0,34.85 -62.66,34.85z"/>
    <path class="fil6" d="M9151.08 4299.15c-38.69,0 -77.85,-24.96 -113.28,-72.18 -69.36,-89.2 -130.89,-197.57 -183.01,-322.31l-15.89 -37.66c-33.27,-78.4 -49.99,-117.75 -49.99,-208.77l0 -469.19c0,-9.96 0,-36.46 62.62,-36.46 62.66,0 62.66,26.5 62.66,36.46l0 459.38c0,114.82 50.95,217.77 53.11,222.09 4.65,9.19 113.94,222.94 171.59,291.2l11.93 14.09 12.22 -13.83c60.29,-68.41 169.69,-287.69 174.34,-296.98 1.75,-3.15 50.58,-92.75 50.58,-216.57l0 -459.38c0,-9.96 0,-36.46 62.62,-36.46 62.66,0 62.66,26.5 62.66,36.46l0 469.19c0,91.02 -16.72,130.41 -50.07,208.81l-15.85 37.66c-52.01,124.59 -113.53,232.93 -182.82,322.05 -35.57,47.44 -74.74,72.4 -113.42,72.4z"/>
    <path class="fil6" d="M9874.39 4300.8c-62.63,0 -62.63,-24.42 -62.63,-34.81l0 -1076.95c0,-9.96 0,-36.46 62.63,-36.46 62.66,0 62.66,26.5 62.66,36.46l0 1076.95c0,10.39 0,34.81 -62.66,34.81z"/>
    <path class="fil6" d="M10858.03 4299.19c-62.66,0 -62.66,-26.5 -62.66,-36.46l0 -45.82c0,-77.42 -13.91,-142.93 -42.6,-200.29 -26.65,-58.41 -84.15,-126.53 -175.51,-207.71l-10.57 -9.44 -10.58 9.44c-90.29,80.23 -148.26,148.24 -177.25,207.9 -27.56,58.49 -40.88,123.89 -40.88,200.1l0 45.82c0,9.96 0,36.46 -62.63,36.46 -62.66,0 -62.66,-26.5 -62.66,-36.46l0 -52.38c0,-92.12 16.58,-173.52 49.23,-241.89 32.54,-69.76 98.2,-147.83 200.76,-238.82l13.21 -11.72 -13 -11.97c-103.1,-94.79 -168.91,-171.47 -201.15,-234.5 -33.02,-64.38 -49.05,-141.28 -49.05,-234.98l0 -47.43c0,-9.96 0,-36.46 62.66,-36.46 62.63,0 62.63,26.5 62.63,36.46l0 50.73c0,72.06 14.38,135.71 42.75,189.15 29.17,54.83 88.17,121.85 175.38,199.22l10.58 9.37 10.57 -9.37c85.17,-75.54 143.63,-142.56 173.71,-199.22 29.47,-55.41 44.4,-119.06 44.4,-189.15l0 -50.73c0,-9.96 0,-36.46 62.66,-36.46 62.62,0 62.62,26.5 62.62,36.46l0 47.43c0,90.33 -17.05,169.39 -50.65,235.02 -33.24,64.86 -98.5,141.57 -199.55,234.46l-12.99 11.97 13.21 11.72c100.73,89.34 165.84,167.41 199.07,238.67 33.79,70.79 50.91,152.15 50.91,242.04l0 52.38c0,9.96 0,36.46 -62.62,36.46z"/>
   </g>
   <path class="fil7" d="M7729.09 4804.03c-5.63,5.82 -5.63,8.15 0,13.97l100.33 84.6c5.16,4.27 11.26,3.88 17.35,-1.16 7.03,-5.05 7.5,-10.09 1.87,-14.75l-90.48 -75.67 90.48 -75.67c5.63,-4.66 5.16,-9.7 -1.87,-14.75 -6.09,-5.04 -12.19,-5.43 -17.35,-1.16l-100.33 84.59zm388.24 -147.46c2.34,-5.82 -0.95,-9.7 -8.92,-12.03 -8.43,-2.33 -13.59,-0.78 -15.94,5.05l-126.59 322.09c-2.35,5.82 0.94,9.7 8.91,12.02 8.44,2.33 13.59,0.78 15.94,-5.04l126.6 -322.09zm92.38 217.7c0,43.08 31.41,69.08 82.05,69.08 50.63,0 82.05,-26 82.05,-69.08l0 -18.24c0,-6.21 -4.69,-9.31 -14.54,-9.31 -9.83,0 -14.53,3.1 -14.53,9.31l0 17.47c0,31.04 -19.68,48.12 -52.98,48.12 -33.29,0 -52.98,-17.08 -52.98,-48.12l0 -142.81c0,-31.04 19.69,-48.12 52.98,-48.12 33.3,0 52.98,17.08 52.98,48.12l0 17.46c0,6.21 4.7,9.32 14.53,9.32 9.85,0 14.54,-3.11 14.54,-9.32l0 -18.24c0,-43.07 -31.42,-69.07 -82.05,-69.07 -50.64,0 -82.05,26 -82.05,69.07l0 144.36zm415.43 -0.77c0,31.04 -19.68,48.12 -52.98,48.12 -33.29,0 -52.98,-17.08 -52.98,-48.12l0 -142.81c0,-31.04 19.69,-48.12 52.98,-48.12 33.3,0 52.98,17.08 52.98,48.12l0 142.81zm-135.03 0.77c0,43.08 31.41,69.08 82.05,69.08 50.64,0 82.05,-26 82.05,-69.08l0 -144.36c0,-43.07 -31.41,-69.07 -82.05,-69.07 -50.64,0 -82.05,26 -82.05,69.07l0 144.36zm360.58 64.42c50.64,0 82.05,-26 82.05,-69.07l0 -135.05c0,-43.07 -31.41,-69.07 -82.05,-69.07l-62.36 0c-7.5,0 -13.13,4.65 -13.13,12.03l0 249.52c0,7.37 5.63,11.64 13.13,11.64l62.36 0zm0 -251.46c33.29,0 52.98,17.07 52.98,48.12l0 133.49c0,31.04 -19.69,48.12 -52.98,48.12l-46.42 0 0 -229.73 46.42 0zm330.11 251.46c7.03,0 10.78,-3.49 10.78,-10.87 0,-7.37 -3.75,-10.86 -10.78,-10.86l-98 0 0 -108.27 87.21 0c7.03,0 10.79,-3.49 10.79,-10.87 0,-7.37 -3.76,-10.86 -10.79,-10.86l-87.21 0 0 -99.73 97.06 0c7.03,0 10.79,-3.5 10.79,-10.87 0,-7.37 -3.76,-10.86 -10.79,-10.86l-115.81 0c-7.03,0 -10.32,3.49 -10.32,10.86l0 251.46c0,7.38 3.29,10.87 10.32,10.87l116.75 0zm263.52 -120.69c5.64,-5.82 5.64,-8.15 0,-13.97l-100.33 -84.59c-5.15,-4.27 -11.26,-3.88 -17.35,1.16 -7.03,5.05 -7.5,10.09 -1.88,14.75l90.5 75.67 -90.5 75.67c-5.62,4.66 -5.15,9.7 1.88,14.75 6.09,5.04 12.2,5.43 17.35,1.16l100.33 -84.6z"/>
  </g>
 </g>
</svg>
