<svg width="84" height="84" viewBox="0 0 84 84" fill="none" xmlns="http://www.w3.org/2000/svg">
    <path d="M31.5 45.5H52.5M31.5 59.5H42M14 14V70C14 71.8565 14.7375 73.637 16.0503 74.9497C17.363 76.2625 19.1435 77 21 77H63C64.8565 77 66.637 76.2625 67.9497 74.9497C69.2625 73.637 70 71.8565 70 70V29.197C69.9999 28.2645 69.8134 27.3413 69.4516 26.4819C69.0898 25.6224 68.5599 24.8438 67.893 24.192L52.353 8.995C51.0453 7.7163 49.289 7.00023 47.46 7H21C19.1435 7 17.363 7.7375 16.0503 9.05025C14.7375 10.363 14 12.1435 14 14Z" stroke="black" stroke-width="2" stroke-linecap="round" stroke-linejoin="round"/>
    <path d="M49 7V21C49 22.8565 49.7375 24.637 51.0503 25.9497C52.363 27.2625 54.1435 28 56 28H70" stroke="black" stroke-width="2" stroke-linejoin="round"/>
    <g clip-path="url(#clip0_3_15)">
        <path d="M60.5059 84.0002L75.4579 75.3663L69.7269 72.0518L63.8678 75.4366C63.8179 75.4641 63.7618 75.4782 63.7048 75.4778C63.6478 75.4773 63.5919 75.4622 63.5424 75.434C63.4931 75.4051 63.4521 75.3639 63.4234 75.3145C63.3946 75.2651 63.379 75.2092 63.3782 75.152V67.1136C63.3782 66.8767 63.5008 66.6624 63.7058 66.5444L70.6679 62.5237C70.7175 62.4955 70.7737 62.4809 70.8308 62.4813C70.8879 62.4818 70.9438 62.4973 70.993 62.5263C71.0948 62.5827 71.1584 62.6894 71.1596 62.8057V69.5723L76.8943 72.8847V55.6172L60.5056 65.077L60.5059 84.0002Z" fill="black"/>
        <path d="M57.1529 75.4401L51.291 72.0514L45.5556 75.3655L60.5059 84V65.0768L44.1227 55.6167V72.8834L49.856 69.5721V62.8061C49.8586 62.6901 49.921 62.5834 50.0214 62.5267C50.0708 62.4976 50.1271 62.4821 50.1844 62.4816C50.2418 62.4812 50.2983 62.4958 50.3482 62.5241L57.3137 66.5442C57.4134 66.6022 57.4961 66.6854 57.5536 66.7853C57.6111 66.8853 57.6414 66.9986 57.6414 67.1139V75.1536C57.6406 75.2108 57.6252 75.2669 57.5966 75.3165C57.568 75.3661 57.5272 75.4076 57.478 75.437C57.4288 75.4659 57.373 75.4814 57.3159 75.482C57.2589 75.4826 57.2027 75.4683 57.1529 75.4404" fill="#4D4D4D"/>
        <path d="M61.9426 46.9832V53.6057L67.802 56.9884C67.9026 57.0471 67.9625 57.155 67.9625 57.273C67.9625 57.3895 67.9012 57.4963 67.802 57.555L60.8373 61.5782C60.7372 61.635 60.6242 61.6649 60.5091 61.6649C60.394 61.6649 60.2809 61.635 60.1809 61.5782L53.2182 57.555C53.1687 57.5264 53.1277 57.4853 53.0993 57.4358C53.0708 57.3863 53.056 57.3301 53.0562 57.273C53.0558 57.2155 53.0706 57.1589 53.099 57.109C53.1274 57.059 53.1686 57.0174 53.2182 56.9884L59.0764 53.6057V46.9832L44.1224 55.6171L60.5059 65.0769L76.8931 55.6174L61.9426 46.9832Z" fill="#808080"/>
    </g>
    <defs>
        <clipPath id="clip0_3_15">
            <rect width="37.0169" height="37.0169" fill="white" transform="translate(42 46.9832)"/>
        </clipPath>
    </defs>
</svg>
