<svg width="337" height="136" viewBox="0 0 337 136" fill="none" xmlns="http://www.w3.org/2000/svg">
    <path d="M0.000999451 135.146L51.703 105.291L31.886 93.83L11.626 105.534C11.4534 105.629 11.2593 105.678 11.0623 105.676C10.8653 105.675 10.672 105.623 10.501 105.525C10.3305 105.425 10.1887 105.283 10.0892 105.112C9.98971 104.941 9.9359 104.748 9.93299 104.55V76.754C9.93299 75.935 10.357 75.194 11.066 74.786L35.14 60.883C35.3115 60.7853 35.5058 60.7347 35.7032 60.7363C35.9006 60.7378 36.0941 60.7916 36.264 60.892C36.616 61.087 36.836 61.456 36.84 61.858V85.256L56.67 96.71V37.001L0 69.712L0.000999451 135.146Z" fill="black"/>
    <path d="M101.727 105.547L81.4569 93.829L61.6249 105.289L113.321 135.146V69.712L56.6699 37V96.706L76.4949 85.256V61.86C76.5039 61.459 76.7199 61.09 77.0669 60.894C77.2379 60.7935 77.4324 60.7397 77.6307 60.7381C77.8291 60.7365 78.0244 60.7872 78.1969 60.885L102.283 74.786C102.628 74.9866 102.914 75.2741 103.112 75.6198C103.311 75.9655 103.416 76.3572 103.416 76.756V104.556C103.413 104.754 103.36 104.948 103.261 105.12C103.162 105.291 103.021 105.434 102.851 105.536C102.681 105.636 102.488 105.69 102.291 105.692C102.093 105.694 101.899 105.644 101.727 105.548" fill="#4D4D4D"/>
    <path d="M0.000999451 98.146L51.703 68.291L31.886 56.83L11.626 68.534C11.4534 68.629 11.2593 68.678 11.0623 68.6764C10.8653 68.6749 10.672 68.6227 10.501 68.525C10.3305 68.425 10.1887 68.2827 10.0892 68.1119C9.98971 67.9411 9.9359 67.7476 9.93299 67.55V39.754C9.93299 38.935 10.357 38.194 11.066 37.786L35.14 23.883C35.3115 23.7853 35.5058 23.7347 35.7032 23.7363C35.9006 23.7378 36.0941 23.7916 36.264 23.892C36.616 24.087 36.836 24.456 36.84 24.858V48.256L56.67 59.71V0.000976562L0 32.712L0.000999451 98.146Z" fill="black"/>
    <path d="M101.727 68.547L81.4569 56.829L61.6249 68.289L113.321 98.146V32.712L56.6699 0V59.706L76.4949 48.256V24.86C76.5039 24.459 76.7199 24.09 77.0669 23.894C77.2379 23.7935 77.4324 23.7397 77.6307 23.7381C77.8291 23.7365 78.0244 23.7872 78.1969 23.885L102.283 37.786C102.628 37.9866 102.914 38.2741 103.112 38.6198C103.311 38.9655 103.416 39.3572 103.416 39.756V67.556C103.413 67.754 103.36 67.948 103.261 68.1195C103.162 68.2911 103.021 68.4344 102.851 68.536C102.681 68.6359 102.488 68.6896 102.291 68.6917C102.093 68.6938 101.899 68.6443 101.727 68.548" fill="#4D4D4D"/>
    <path d="M169.671 93.584C166.727 97.04 162.247 98.768 156.231 98.768C150.215 98.768 145.714 97.0187 142.727 93.52C139.783 90.0213 138.311 85.2427 138.311 79.184V52.24H141.383V79.184C141.383 90.448 146.311 96.08 156.167 96.08C166.066 96.08 171.015 90.448 171.015 79.184V52.24H174.087V79.184C174.087 85.2853 172.615 90.0853 169.671 93.584ZM193.392 59.536L193.52 64.976V98H190.448V51.856H191.856L222 86.608C224.048 89.04 225.627 90.9813 226.736 92.432C226.565 90.384 226.48 88.0373 226.48 85.392V52.24H229.552V98.384H228.144L197.424 62.992C195.291 60.56 193.925 58.9387 193.328 58.128L193.392 59.536ZM261.68 88.72L277.04 52.24H280.304L260.592 98.384H258.8L239.024 52.24H242.48L257.84 88.592C258.907 91.1947 259.568 92.9867 259.824 93.968C260.165 92.6027 260.784 90.8533 261.68 88.72ZM289.76 98V52.24H292.833V98H289.76ZM304.642 52.24H308.418L320.706 72.336L333.506 52.24H336.898L322.178 74.704L336.962 98H333.25L320.066 76.752L306.306 98H302.914L318.53 74.32L304.642 52.24Z" fill="black"/>
</svg>
